<svg width="385" height="265" viewBox="0 0 385 265" fill="none" xmlns="http://www.w3.org/2000/svg">
<mask id="mask0_2733_41413" style="mask-type:alpha" maskUnits="userSpaceOnUse" x="0" y="0" width="385" height="265">
<path d="M0 0H385V265H0V0Z" fill="#D9D9D9"/>
</mask>
<g mask="url(#mask0_2733_41413)">
<rect width="471.803" height="265.508" transform="translate(-43)" fill="#8FD0FF"/>
<g clip-path="url(#clip0_2733_41413)">
<rect width="471.833" height="266" transform="translate(-43.0146 -0.245789)" fill="#181E29"/>
<line x1="163.983" y1="-328.787" x2="163.983" y2="585.588" stroke="#2A364F" stroke-width="0.791667"/>
<line x1="48.304" y1="-328.787" x2="48.304" y2="585.588" stroke="#2A364F" stroke-width="0.791667"/>
<line x1="279.659" y1="-328.787" x2="279.658" y2="585.588" stroke="#2A364F" stroke-width="0.791667"/>
<line x1="221.821" y1="-328.787" x2="221.821" y2="585.588" stroke="#2A364F" stroke-width="0.791667"/>
<line x1="106.144" y1="-328.787" x2="106.144" y2="585.588" stroke="#2A364F" stroke-width="0.791667"/>
<line x1="337.497" y1="-328.787" x2="337.497" y2="585.588" stroke="#2A364F" stroke-width="0.791667"/>
<line x1="-264.681" y1="75.6858" x2="649.694" y2="75.6858" stroke="#2A364F" stroke-width="0.791667"/>
<line x1="-264.681" y1="191.363" x2="649.694" y2="191.363" stroke="#2A364F" stroke-width="0.791667"/>
<line x1="-264.681" y1="249.201" x2="649.694" y2="249.201" stroke="#2A364F" stroke-width="0.791667"/>
<line x1="-264.681" y1="17.847" x2="649.694" y2="17.8471" stroke="#2A364F" stroke-width="0.791667"/>
<line x1="-264.681" y1="133.524" x2="649.694" y2="133.524" stroke="#2A364F" stroke-width="0.791667"/>
<line x1="-42.4209" y1="133.458" x2="428.225" y2="133.459" stroke="url(#paint0_linear_2733_41413)" stroke-width="1.1875" stroke-linecap="round"/>
<line x1="105.226" y1="178.188" x2="281.371" y2="178.188" stroke="#4E5460" stroke-width="1.1875" stroke-linecap="round"/>
<line x1="105.226" y1="160.771" x2="281.371" y2="160.771" stroke="#4E5460" stroke-width="1.1875" stroke-linecap="round"/>
<line x1="105.226" y1="102.979" x2="281.371" y2="102.979" stroke="#4E5460" stroke-width="1.1875" stroke-linecap="round"/>
<line x1="105.226" y1="85.5627" x2="281.371" y2="85.5627" stroke="#4E5460" stroke-width="1.1875" stroke-linecap="round"/>
<line x1="147.579" y1="44.396" x2="147.579" y2="220.542" stroke="#4E5460" stroke-width="1.1875" stroke-linecap="round"/>
<line x1="164.996" y1="44.396" x2="164.996" y2="220.542" stroke="#4E5460" stroke-width="1.1875" stroke-linecap="round"/>
<line x1="222.788" y1="44.396" x2="222.788" y2="220.542" stroke="#4E5460" stroke-width="1.1875" stroke-linecap="round"/>
<line x1="240.205" y1="44.396" x2="240.205" y2="220.542" stroke="#4E5460" stroke-width="1.1875" stroke-linecap="round"/>
<g filter="url(#filter0_d_2733_41413)">
<rect x="120.068" y="59.9209" width="145.667" height="145.667" rx="9.5" fill="#181E29"/>
<rect x="120.662" y="60.5146" width="144.479" height="144.479" rx="8.90625" stroke="#717785" stroke-width="1.1875"/>
</g>
<circle cx="147.255" cy="87.1074" r="6.64381" fill="#144EE3"/>
<circle cx="147.255" cy="87.1074" r="6.24797" stroke="url(#paint1_linear_2733_41413)" stroke-opacity="0.37" stroke-width="0.791667"/>
<path opacity="0.14" d="M146.992 94.0031L146.992 129.743C146.992 131.492 148.41 132.91 150.159 132.91L234.712 132.91C236.46 132.91 237.878 134.328 237.878 136.076V172.128" stroke="white" stroke-width="1.1875" stroke-linecap="round"/>
<circle cx="238.141" cy="178.616" r="6.64381" fill="#144EE3"/>
<circle cx="238.141" cy="178.616" r="6.24797" stroke="url(#paint2_linear_2733_41413)" stroke-opacity="0.37" stroke-width="0.791667"/>
<circle cx="238.141" cy="87.1074" r="6.64381" fill="#144EE3"/>
<circle cx="238.141" cy="87.1074" r="6.24797" stroke="url(#paint3_linear_2733_41413)" stroke-opacity="0.37" stroke-width="0.791667"/>
<circle cx="147.255" cy="178.616" r="6.64381" fill="#144EE3"/>
<circle cx="147.255" cy="178.616" r="6.24797" stroke="url(#paint4_linear_2733_41413)" stroke-opacity="0.37" stroke-width="0.791667"/>
</g>
</g>
<defs>
<filter id="filter0_d_2733_41413" x="99.485" y="47.2542" width="186.834" height="186.833" filterUnits="userSpaceOnUse" color-interpolation-filters="sRGB">
<feFlood flood-opacity="0" result="BackgroundImageFix"/>
<feColorMatrix in="SourceAlpha" type="matrix" values="0 0 0 0 0 0 0 0 0 0 0 0 0 0 0 0 0 0 127 0" result="hardAlpha"/>
<feOffset dy="7.91667"/>
<feGaussianBlur stdDeviation="10.2917"/>
<feComposite in2="hardAlpha" operator="out"/>
<feColorMatrix type="matrix" values="0 0 0 0 0 0 0 0 0 0 0 0 0 0 0 0 0 0 0.28 0"/>
<feBlend mode="normal" in2="BackgroundImageFix" result="effect1_dropShadow_2733_41413"/>
<feBlend mode="normal" in="SourceGraphic" in2="effect1_dropShadow_2733_41413" result="shape"/>
</filter>
<linearGradient id="paint0_linear_2733_41413" x1="-43.0146" y1="134.052" x2="431.985" y2="134.052" gradientUnits="userSpaceOnUse">
<stop stop-color="#4E5460" stop-opacity="0"/>
<stop offset="0.510417" stop-color="#8B91A0"/>
<stop offset="1" stop-color="#4E5460" stop-opacity="0"/>
</linearGradient>
<linearGradient id="paint1_linear_2733_41413" x1="147.255" y1="80.4636" x2="147.255" y2="93.7512" gradientUnits="userSpaceOnUse">
<stop stop-color="white"/>
<stop offset="1" stop-color="white" stop-opacity="0"/>
</linearGradient>
<linearGradient id="paint2_linear_2733_41413" x1="238.141" y1="171.972" x2="238.141" y2="185.26" gradientUnits="userSpaceOnUse">
<stop stop-color="white"/>
<stop offset="1" stop-color="white" stop-opacity="0"/>
</linearGradient>
<linearGradient id="paint3_linear_2733_41413" x1="238.141" y1="80.4636" x2="238.141" y2="93.7512" gradientUnits="userSpaceOnUse">
<stop stop-color="white"/>
<stop offset="1" stop-color="white" stop-opacity="0"/>
</linearGradient>
<linearGradient id="paint4_linear_2733_41413" x1="147.255" y1="171.972" x2="147.255" y2="185.26" gradientUnits="userSpaceOnUse">
<stop stop-color="white"/>
<stop offset="1" stop-color="white" stop-opacity="0"/>
</linearGradient>
<clipPath id="clip0_2733_41413">
<rect width="471.833" height="266" fill="white" transform="translate(-43.0146 -0.245789)"/>
</clipPath>
</defs>
</svg>
