<svg width="385" height="265" viewBox="0 0 385 265" fill="none" xmlns="http://www.w3.org/2000/svg">
<mask id="mask0_2733_41364" style="mask-type:alpha" maskUnits="userSpaceOnUse" x="0" y="0" width="385" height="265">
<path d="M0 0H385V265H0V0Z" fill="#D9D9D9"/>
</mask>
<g mask="url(#mask0_2733_41364)">
<rect width="471.803" height="265.508" transform="translate(-43)" fill="#8FD0FF"/>
<g clip-path="url(#clip0_2733_41364)">
<rect width="471.833" height="266" transform="translate(-43.0151 -0.245789)" fill="#181E29"/>
<line x1="163.982" y1="-328.787" x2="163.982" y2="585.588" stroke="#2A364F" stroke-width="0.791667"/>
<line x1="48.304" y1="-328.787" x2="48.304" y2="585.588" stroke="#2A364F" stroke-width="0.791667"/>
<line x1="279.658" y1="-328.787" x2="279.658" y2="585.588" stroke="#2A364F" stroke-width="0.791667"/>
<line x1="221.82" y1="-328.787" x2="221.82" y2="585.588" stroke="#2A364F" stroke-width="0.791667"/>
<line x1="106.144" y1="-328.787" x2="106.144" y2="585.588" stroke="#2A364F" stroke-width="0.791667"/>
<line x1="337.496" y1="-328.787" x2="337.496" y2="585.588" stroke="#2A364F" stroke-width="0.791667"/>
<line x1="-264.682" y1="75.6858" x2="649.693" y2="75.6858" stroke="#2A364F" stroke-width="0.791667"/>
<line x1="-264.682" y1="191.363" x2="649.693" y2="191.363" stroke="#2A364F" stroke-width="0.791667"/>
<line x1="-264.682" y1="249.201" x2="649.693" y2="249.201" stroke="#2A364F" stroke-width="0.791667"/>
<line x1="-264.682" y1="17.847" x2="649.693" y2="17.8471" stroke="#2A364F" stroke-width="0.791667"/>
<line x1="-264.682" y1="133.524" x2="649.693" y2="133.524" stroke="#2A364F" stroke-width="0.791667"/>
<line x1="-47.1714" y1="132.952" x2="143.224" y2="132.952" stroke="url(#paint0_linear_2733_41364)" stroke-width="1.1875" stroke-linecap="round"/>
<line x1="276.62" y1="160.66" x2="467.016" y2="160.66" stroke="url(#paint1_linear_2733_41364)" stroke-width="1.1875" stroke-linecap="round"/>
<line x1="220.808" y1="117.119" x2="220.808" y2="0.347885" stroke="url(#paint2_linear_2733_41364)" stroke-width="1.1875" stroke-linecap="round"/>
<line x1="163.016" y1="309.494" x2="163.016" y2="192.723" stroke="url(#paint3_linear_2733_41364)" stroke-width="1.1875" stroke-linecap="round"/>
<g filter="url(#filter0_d_2733_41364)">
<path d="M298.193 151.083C298.199 144.931 296.958 138.841 294.546 133.178C292.133 127.515 288.599 122.396 284.153 118.128C279.708 113.859 274.444 110.529 268.676 108.336C262.909 106.144 256.756 105.135 250.588 105.369C244.505 92.4961 234.292 82.0099 221.562 75.5671C208.832 69.1244 194.311 67.0923 180.293 69.7919C166.275 72.4915 153.559 79.7689 144.154 90.4744C134.749 101.18 129.191 114.703 128.358 128.908C123.341 127.861 118.152 127.942 113.17 129.145C108.188 130.349 103.537 132.645 99.5581 135.866C95.5788 139.087 92.3703 143.152 90.1665 147.765C87.9626 152.378 86.8188 157.423 86.8184 162.532C86.8184 197.428 123.579 196.879 123.579 196.879C123.579 196.879 204.797 196.879 256.837 196.879C270.881 196.879 298.193 191.511 298.193 151.083Z" fill="#181E29"/>
<path d="M297.6 151.082V151.083C297.6 171.149 290.831 182.404 282.427 188.665C273.99 194.951 263.801 196.285 256.837 196.285H256.532H256.226H255.92H255.612H255.305H254.996H254.687H254.377H254.067H253.756H253.444H253.132H252.819H252.505H252.191H251.876H251.561H251.245H250.929H250.612H250.294H249.976H249.657H249.338H249.018H248.698H248.377H248.056H247.734H247.411H247.088H246.765H246.441H246.116H245.791H245.466H245.14H244.813H244.486H244.159H243.831H243.502H243.174H242.844H242.515H242.184H241.854H241.523H241.191H240.859H240.527H240.194H239.861H239.527H239.193H238.859H238.524H238.189H237.853H237.517H237.181H236.845H236.507H236.17H235.832H235.494H235.156H234.817H234.478H234.139H233.799H233.459H233.118H232.778H232.437H232.095H231.754H231.412H231.07H230.727H230.385H230.042H229.699H229.355H229.011H228.667H228.323H227.979H227.634H227.289H226.944H226.599H226.253H225.907H225.561H225.215H224.869H224.522H224.175H223.828H223.481H223.134H222.786H222.439H222.091H221.743H221.395H221.047H220.699H220.35H220.002H219.653H219.304H218.955H218.606H218.257H217.908H217.558H217.209H216.859H216.51H216.16H215.811H215.461H215.111H214.761H214.411H214.061H213.711H213.361H213.011H212.661H212.311H211.961H211.611H211.261H210.911H210.56H210.21H209.86H209.51H209.16H208.81H208.46H208.11H207.761H207.411H207.061H206.711H206.362H206.012H205.663H205.313H204.964H204.615H204.266H203.917H203.568H203.219H202.87H202.522H202.173H201.825H201.477H201.129H200.781H200.433H200.086H199.738H199.391H199.044H198.697H198.351H198.004H197.658H197.312H196.966H196.62H196.274H195.929H195.584H195.239H194.895H194.55H194.206H193.862H193.519H193.175H192.832H192.489H192.147H191.804H191.462H191.12H190.779H190.438H190.097H189.756H189.416H189.076H188.737H188.397H188.058H187.72H187.381H187.043H186.706H186.369H186.032H185.695H185.359H185.023H184.688H184.353H184.018H183.684H183.35H183.017H182.684H182.351H182.019H181.687H181.356H181.025H180.694H180.364H180.034H179.705H179.377H179.048H178.721H178.393H178.067H177.74H177.414H177.089H176.764H176.44H176.116H175.793H175.47H175.148H174.826H174.505H174.184H173.864H173.544H173.225H172.907H172.589H172.271H171.954H171.638H171.323H171.008H170.693H170.379H170.066H169.753H169.441H169.13H168.819H168.509H168.199H167.89H167.582H167.274H166.967H166.661H166.355H166.05H165.746H165.442H165.139H164.837H164.535H164.234H163.934H163.635H163.336H163.038H162.74H162.444H162.148H161.853H161.558H161.264H160.971H160.679H160.388H160.097H159.807H159.518H159.23H158.942H158.655H158.369H158.084H157.8H157.516H157.233H156.951H156.67H156.39H156.11H155.832H155.554H155.277H155.001H154.726H154.451H154.178H153.905H153.633H153.362H153.092H152.823H152.555H152.288H152.021H151.756H151.491H151.228H150.965H150.703H150.442H150.182H149.923H149.665H149.408H149.152H148.897H148.643H148.39H148.137H147.886H147.636H147.387H147.138H146.891H146.645H146.4H146.156H145.912H145.67H145.429H145.189H144.95H144.712H144.475H144.239H144.004H143.771H143.538H143.307H143.076H142.847H142.618H142.391H142.165H141.94H141.716H141.493H141.272H141.051H140.832H140.614H140.397H140.181H139.966H139.752H139.54H139.328H139.118H138.909H138.702H138.495H138.29H138.085H137.882H137.681H137.48H137.281H137.083H136.886H136.69H136.496H136.302H136.11H135.92H135.73H135.542H135.355H135.17H134.985H134.802H134.62H134.44H134.261H134.083H133.906H133.731H133.557H133.384H133.213H133.043H132.874H132.707H132.541H132.376H132.213H132.051H131.891H131.732H131.574H131.417H131.262H131.109H130.957H130.806H130.656H130.508H130.362H130.216H130.073H129.93H129.789H129.65H129.512H129.375H129.24H129.107H128.974H128.844H128.715H128.587H128.46H128.336H128.212H128.091H127.97H127.851H127.734H127.618H127.504H127.391H127.28H127.171H127.063H126.956H126.851H126.748H126.646H126.545H126.447H126.35H126.254H126.16H126.068H125.977H125.888H125.8H125.714H125.63H125.547H125.466H125.386H125.309H125.232H125.158H125.085H125.014H124.944H124.876H124.81H124.745H124.683H124.621H124.562H124.504H124.448H124.394H124.341H124.29H124.241H124.193H124.147H124.103H124.061H124.02H123.981H123.944H123.909H123.876H123.844H123.814H123.786H123.759H123.734H123.712H123.691H123.671H123.654H123.638H123.624H123.613H123.602H123.594H123.588H123.583H123.58C123.58 196.285 123.579 196.285 123.579 196.879V196.285L123.57 196.285L123.57 196.285L123.57 196.285L123.566 196.285L123.548 196.285C123.532 196.285 123.507 196.285 123.474 196.285C123.408 196.285 123.308 196.285 123.176 196.283C122.914 196.278 122.526 196.267 122.031 196.241C121.041 196.189 119.623 196.076 117.92 195.832C114.51 195.343 109.974 194.333 105.447 192.252C100.921 190.171 96.4182 187.027 93.0464 182.277C89.6784 177.531 87.4121 171.145 87.4121 162.532C87.4125 157.511 88.5365 152.554 90.7022 148.021C92.8679 143.488 96.0209 139.493 99.9317 136.328C103.842 133.162 108.413 130.906 113.309 129.723C118.206 128.54 123.305 128.46 128.237 129.489L128.911 129.63L128.951 128.943C129.776 114.87 135.282 101.473 144.6 90.8663C153.918 80.2599 166.517 73.0496 180.405 70.3749C194.294 67.7002 208.681 69.7136 221.294 76.0969C233.906 82.4802 244.025 92.8694 250.051 105.623L250.219 105.977L250.611 105.962C256.699 105.731 262.772 106.727 268.465 108.891C274.159 111.055 279.355 114.343 283.742 118.556C288.13 122.769 291.619 127.822 294 133.411C296.381 139 297.605 145.01 297.6 151.082Z" stroke="#717785" stroke-width="1.1875"/>
</g>
<circle cx="106.351" cy="74.7033" r="8.44919" fill="#144EE3"/>
<circle cx="106.351" cy="74.7033" r="8.05336" stroke="url(#paint4_linear_2733_41364)" stroke-opacity="0.37" stroke-width="0.791667"/>
<circle cx="252.018" cy="198.995" r="8.44919" fill="#144EE3"/>
<circle cx="252.018" cy="198.995" r="8.05336" stroke="url(#paint5_linear_2733_41364)" stroke-opacity="0.37" stroke-width="0.791667"/>
<circle cx="278.934" cy="75.495" r="8.44919" fill="#144EE3"/>
<circle cx="278.934" cy="75.495" r="8.05336" stroke="url(#paint6_linear_2733_41364)" stroke-opacity="0.37" stroke-width="0.791667"/>
<circle cx="67.5591" cy="191.87" r="8.44919" fill="#144EE3"/>
<circle cx="67.5591" cy="191.87" r="8.05336" stroke="url(#paint7_linear_2733_41364)" stroke-opacity="0.37" stroke-width="0.791667"/>
</g>
</g>
<defs>
<filter id="filter0_d_2733_41364" x="66.235" y="55.9625" width="252.542" height="169.417" filterUnits="userSpaceOnUse" color-interpolation-filters="sRGB">
<feFlood flood-opacity="0" result="BackgroundImageFix"/>
<feColorMatrix in="SourceAlpha" type="matrix" values="0 0 0 0 0 0 0 0 0 0 0 0 0 0 0 0 0 0 127 0" result="hardAlpha"/>
<feOffset dy="7.91667"/>
<feGaussianBlur stdDeviation="10.2917"/>
<feComposite in2="hardAlpha" operator="out"/>
<feColorMatrix type="matrix" values="0 0 0 0 0 0 0 0 0 0 0 0 0 0 0 0 0 0 0.28 0"/>
<feBlend mode="normal" in2="BackgroundImageFix" result="effect1_dropShadow_2733_41364"/>
<feBlend mode="normal" in="SourceGraphic" in2="effect1_dropShadow_2733_41364" result="shape"/>
</filter>
<linearGradient id="paint0_linear_2733_41364" x1="110.964" y1="133.186" x2="-47.7651" y2="133.186" gradientUnits="userSpaceOnUse">
<stop stop-color="#717785"/>
<stop offset="1" stop-color="#717785" stop-opacity="0"/>
</linearGradient>
<linearGradient id="paint1_linear_2733_41364" x1="298.193" y1="160.894" x2="430.006" y2="160.894" gradientUnits="userSpaceOnUse">
<stop stop-color="#717785"/>
<stop offset="1" stop-color="#717785" stop-opacity="0"/>
</linearGradient>
<linearGradient id="paint2_linear_2733_41364" x1="221.401" y1="78.6355" x2="221.401" y2="-0.531139" gradientUnits="userSpaceOnUse">
<stop stop-color="#717785"/>
<stop offset="1" stop-color="#717785" stop-opacity="0"/>
</linearGradient>
<linearGradient id="paint3_linear_2733_41364" x1="163.609" y1="197.385" x2="163.609" y2="264.281" gradientUnits="userSpaceOnUse">
<stop stop-color="#717785"/>
<stop offset="1" stop-color="#717785" stop-opacity="0"/>
</linearGradient>
<linearGradient id="paint4_linear_2733_41364" x1="106.351" y1="66.2542" x2="106.351" y2="83.1525" gradientUnits="userSpaceOnUse">
<stop stop-color="white"/>
<stop offset="1" stop-color="white" stop-opacity="0"/>
</linearGradient>
<linearGradient id="paint5_linear_2733_41364" x1="252.018" y1="190.546" x2="252.018" y2="207.444" gradientUnits="userSpaceOnUse">
<stop stop-color="white"/>
<stop offset="1" stop-color="white" stop-opacity="0"/>
</linearGradient>
<linearGradient id="paint6_linear_2733_41364" x1="278.934" y1="67.0458" x2="278.934" y2="83.9442" gradientUnits="userSpaceOnUse">
<stop stop-color="white"/>
<stop offset="1" stop-color="white" stop-opacity="0"/>
</linearGradient>
<linearGradient id="paint7_linear_2733_41364" x1="67.5591" y1="183.421" x2="67.5591" y2="200.319" gradientUnits="userSpaceOnUse">
<stop stop-color="white"/>
<stop offset="1" stop-color="white" stop-opacity="0"/>
</linearGradient>
<clipPath id="clip0_2733_41364">
<rect width="471.833" height="266" fill="white" transform="translate(-43.0151 -0.245789)"/>
</clipPath>
</defs>
</svg>
