<svg width="385" height="265" viewBox="0 0 385 265" fill="none" xmlns="http://www.w3.org/2000/svg">
<mask id="mask0_2733_41214" style="mask-type:alpha" maskUnits="userSpaceOnUse" x="0" y="0" width="385" height="265">
<path d="M0 0H385V265H0V0Z" fill="#D9D9D9"/>
</mask>
<g mask="url(#mask0_2733_41214)">
<rect width="471.803" height="265.508" transform="translate(-43)" fill="#8FD0FF"/>
<g clip-path="url(#clip0_2733_41214)">
<rect width="471.833" height="266" transform="translate(-43.0151 -0.245789)" fill="#181E29"/>
<line x1="163.981" y1="-328.787" x2="163.981" y2="585.588" stroke="#2A364F" stroke-width="0.791667"/>
<line x1="48.3031" y1="-328.787" x2="48.303" y2="585.588" stroke="#2A364F" stroke-width="0.791667"/>
<line x1="279.658" y1="-328.787" x2="279.658" y2="585.588" stroke="#2A364F" stroke-width="0.791667"/>
<line x1="221.819" y1="-328.787" x2="221.819" y2="585.588" stroke="#2A364F" stroke-width="0.791667"/>
<line x1="106.143" y1="-328.787" x2="106.143" y2="585.588" stroke="#2A364F" stroke-width="0.791667"/>
<line x1="337.496" y1="-328.787" x2="337.496" y2="585.588" stroke="#2A364F" stroke-width="0.791667"/>
<line x1="-264.682" y1="75.686" x2="649.693" y2="75.686" stroke="#2A364F" stroke-width="0.791667"/>
<line x1="-264.682" y1="191.363" x2="649.693" y2="191.363" stroke="#2A364F" stroke-width="0.791667"/>
<line x1="-264.682" y1="249.201" x2="649.693" y2="249.201" stroke="#2A364F" stroke-width="0.791667"/>
<line x1="-264.682" y1="17.8472" x2="649.693" y2="17.8472" stroke="#2A364F" stroke-width="0.791667"/>
<line x1="-264.682" y1="133.524" x2="649.693" y2="133.524" stroke="#2A364F" stroke-width="0.791667"/>
<line x1="-85.1714" y1="191.535" x2="184.391" y2="191.535" stroke="url(#paint0_linear_2733_41214)" stroke-width="1.1875" stroke-linecap="round"/>
<line x1="231.495" y1="75.1604" x2="428.224" y2="75.1604" stroke="url(#paint1_linear_2733_41214)" stroke-width="1.1875" stroke-linecap="round"/>
<line x1="163.808" y1="87.827" x2="163.808" y2="-90.6938" stroke="url(#paint2_linear_2733_41214)" stroke-width="1.1875" stroke-linecap="round"/>
<g filter="url(#filter0_d_2733_41214)">
<path d="M234.032 70.3649L234.035 70.3655C236.544 70.8025 239.046 71.2384 241.32 71.6757C250.195 73.5416 257.386 75.8097 262.35 78.3296C264.833 79.5902 266.729 80.8993 268 82.2287C269.269 83.556 269.88 84.8652 269.889 86.1462L270.016 103.457C270.035 105.996 270.019 106.29 269.914 108.247C269.91 108.32 269.906 108.395 269.902 108.473L205.337 178.238L205.177 178.41L205.179 178.645L205.181 178.846L202.294 213.16C194.574 213.334 183.184 213.339 177.178 213.339L173.791 179.304L173.786 178.648L173.784 178.413L173.622 178.243L107.269 108.482C107.27 106.707 107.273 105.983 107.276 105.504C107.279 104.891 107.28 104.679 107.269 103.174C107.269 103.174 107.269 103.173 107.269 103.173L107.233 93.0957L107.233 93.0874L107.233 93.0792C107.15 90.4571 107.209 88.9257 107.246 87.9749C107.26 87.6121 107.271 87.3339 107.269 87.1118C107.259 85.7751 107.878 84.4151 109.172 83.0414C110.468 81.6651 112.407 80.3134 114.942 79.0157C120.009 76.4224 127.335 74.1044 136.293 72.2215C137.436 72.0222 138.576 71.7838 139.738 71.541L139.744 71.5399C141.374 71.1993 143.05 70.8491 144.877 70.5732C145.154 70.5647 145.466 70.4998 145.712 70.4485L145.744 70.442C146.048 70.3788 146.268 70.3358 146.424 70.3346L146.47 70.3343L146.516 70.3267C150.811 69.6164 155.563 69.128 160.34 68.6378C160.621 68.6313 160.94 68.5649 161.191 68.5127L161.222 68.5062C161.527 68.443 161.746 68.3999 161.902 68.3988L161.935 68.3986L161.968 68.3947C166.042 67.9119 170.347 67.6535 174.883 67.6202L178.529 67.5934L178.55 67.5933L178.571 67.5916C181.734 67.3424 184.902 67.3189 188.323 67.2938L192.652 67.262C194.937 67.2453 196.954 67.2311 198.967 67.4398L198.988 67.442L199.009 67.4427C204.71 67.6288 210.392 67.8144 215.619 68.2301L215.645 68.2322L215.671 68.232L216.097 68.2289L222.897 68.8583C222.898 68.8584 222.9 68.8586 222.902 68.8588C226.776 69.2857 230.405 69.7126 234.032 70.3649Z" fill="#181E29" stroke="#717785" stroke-width="1.1875"/>
<path d="M179.078 105.581L179.065 105.581L179.052 105.58C162.902 105.244 148.343 103.759 136.516 101.576C127.528 99.8241 120.166 97.6133 115.061 95.094C112.507 93.8337 110.548 92.5106 109.232 91.1534C107.918 89.7988 107.279 88.448 107.27 87.1114C107.26 85.7747 107.879 84.4147 109.172 83.041C110.468 81.6647 112.408 80.3129 114.943 79.0153C120.009 76.422 127.335 74.104 136.293 72.221C137.437 72.0216 138.579 71.7828 139.743 71.5396C139.875 71.5122 140.006 71.4848 140.138 71.4573C141.445 71.1846 142.788 70.9101 144.218 70.6764C144.395 70.6476 144.57 70.6247 144.757 70.6003C144.806 70.5939 144.856 70.5874 144.906 70.5806C145.144 70.5491 145.397 70.5132 145.651 70.4609L145.764 70.4375C146.081 70.3717 146.383 70.3301 146.707 70.2857C146.892 70.2603 147.084 70.234 147.289 70.2017C151.378 69.5577 155.849 69.0983 160.341 68.6374C160.621 68.6308 160.94 68.5645 161.191 68.5123L161.223 68.5057C161.527 68.4425 161.747 68.3995 161.903 68.3984L161.936 68.3981L161.968 68.3943C166.042 67.9115 170.347 67.6531 174.884 67.6198L175.681 67.6139L176.479 67.6081L177.504 67.6005L178.529 67.593L178.55 67.5929L178.571 67.5912C181.734 67.342 184.903 67.3185 188.324 67.2934L189.691 67.2833L191.058 67.2733L191.855 67.2674L192.653 67.2616C194.937 67.2448 196.954 67.2307 198.968 67.4394L198.989 67.4416L199.01 67.4422C204.71 67.6283 210.393 67.8139 215.62 68.2297L215.645 68.2318L215.671 68.2316L215.899 68.2299L216.097 68.2284L219.488 68.5423L222.897 68.8578C222.899 68.858 222.901 68.8582 222.902 68.8584C226.776 69.2853 230.405 69.7121 234.032 70.3645L234.035 70.3651C236.544 70.8021 239.046 71.238 241.321 71.6753C250.195 73.5412 257.386 75.8093 262.35 78.3291C264.833 79.5897 266.73 80.8988 268 82.2283C269.269 83.5556 269.88 84.8648 269.89 86.1458C269.899 87.4272 269.321 88.7283 268.107 90.0438C266.891 91.3626 265.065 92.6605 262.667 93.9119C257.874 96.414 250.913 98.6701 242.322 100.55C242.291 100.557 242.259 100.561 242.229 100.561C242.104 100.562 241.982 100.577 241.862 100.605C239.242 101.223 236.436 101.667 233.59 102.097C233.276 102.144 232.967 102.207 232.673 102.266L232.646 102.272C232.358 102.33 232.084 102.386 231.811 102.429C231.729 102.442 231.646 102.454 231.561 102.467L231.559 102.467C231.521 102.473 231.483 102.479 231.444 102.485C231.396 102.492 231.347 102.499 231.299 102.507C231.006 102.553 230.716 102.612 230.441 102.668L230.386 102.679C230.09 102.739 229.809 102.795 229.53 102.836C220.212 104.197 209.627 105.135 198.395 105.438C196.819 105.45 195.3 105.516 193.767 105.583L193.681 105.587C192.114 105.655 190.53 105.724 188.834 105.736C185.64 105.759 182.244 105.784 179.078 105.581Z" fill="#181E29" stroke="#717785" stroke-width="1.1875"/>
</g>
<circle cx="138.018" cy="74.4181" r="8.44919" fill="#144EE3"/>
<circle cx="138.018" cy="74.4181" r="8.05336" stroke="url(#paint3_linear_2733_41214)" stroke-opacity="0.37" stroke-width="0.791667"/>
<circle cx="204.518" cy="87.8764" r="8.44919" fill="#144EE3"/>
<circle cx="204.518" cy="87.8764" r="8.05336" stroke="url(#paint4_linear_2733_41214)" stroke-opacity="0.37" stroke-width="0.791667"/>
<circle cx="221.143" cy="45.1264" r="8.44919" fill="#144EE3"/>
<circle cx="221.143" cy="45.1264" r="8.05336" stroke="url(#paint5_linear_2733_41214)" stroke-opacity="0.37" stroke-width="0.791667"/>
<circle cx="77.0591" cy="159.918" r="8.44919" fill="#144EE3"/>
<circle cx="77.0591" cy="159.918" r="8.05336" stroke="url(#paint6_linear_2733_41214)" stroke-opacity="0.37" stroke-width="0.791667"/>
<circle cx="300.309" cy="133.793" r="8.44919" fill="#144EE3"/>
<circle cx="300.309" cy="133.793" r="8.05336" stroke="url(#paint7_linear_2733_41214)" stroke-opacity="0.37" stroke-width="0.791667"/>
</g>
</g>
<defs>
<filter id="filter0_d_2733_41214" x="49.5977" y="34.9925" width="278.019" height="261.274" filterUnits="userSpaceOnUse" color-interpolation-filters="sRGB">
<feFlood flood-opacity="0" result="BackgroundImageFix"/>
<feColorMatrix in="SourceAlpha" type="matrix" values="0 0 0 0 0 0 0 0 0 0 0 0 0 0 0 0 0 0 127 0" result="hardAlpha"/>
<feOffset dy="25.3333"/>
<feGaussianBlur stdDeviation="28.5"/>
<feComposite in2="hardAlpha" operator="out"/>
<feColorMatrix type="matrix" values="0 0 0 0 0 0 0 0 0 0 0 0 0 0 0 0 0 0 0.21 0"/>
<feBlend mode="normal" in2="BackgroundImageFix" result="effect1_dropShadow_2733_41214"/>
<feBlend mode="normal" in="SourceGraphic" in2="effect1_dropShadow_2733_41214" result="shape"/>
</filter>
<linearGradient id="paint0_linear_2733_41214" x1="174.297" y1="191.766" x2="-45.786" y2="191.766" gradientUnits="userSpaceOnUse">
<stop stop-color="#717785"/>
<stop offset="1" stop-color="#717785" stop-opacity="0"/>
</linearGradient>
<linearGradient id="paint1_linear_2733_41214" x1="428.818" y1="75.3945" x2="251.881" y2="75.3945" gradientUnits="userSpaceOnUse">
<stop stop-color="#717785" stop-opacity="0"/>
<stop offset="1" stop-color="#717785"/>
</linearGradient>
<linearGradient id="paint2_linear_2733_41214" x1="164.401" y1="67.948" x2="165.028" y2="-1.43676" gradientUnits="userSpaceOnUse">
<stop stop-color="#717785"/>
<stop offset="1" stop-color="#717785" stop-opacity="0"/>
</linearGradient>
<linearGradient id="paint3_linear_2733_41214" x1="138.018" y1="65.9689" x2="138.018" y2="82.8673" gradientUnits="userSpaceOnUse">
<stop stop-color="white"/>
<stop offset="1" stop-color="white" stop-opacity="0"/>
</linearGradient>
<linearGradient id="paint4_linear_2733_41214" x1="204.518" y1="79.4272" x2="204.518" y2="96.3256" gradientUnits="userSpaceOnUse">
<stop stop-color="white"/>
<stop offset="1" stop-color="white" stop-opacity="0"/>
</linearGradient>
<linearGradient id="paint5_linear_2733_41214" x1="221.143" y1="36.6772" x2="221.143" y2="53.5756" gradientUnits="userSpaceOnUse">
<stop stop-color="white"/>
<stop offset="1" stop-color="white" stop-opacity="0"/>
</linearGradient>
<linearGradient id="paint6_linear_2733_41214" x1="77.0591" y1="151.469" x2="77.0591" y2="168.367" gradientUnits="userSpaceOnUse">
<stop stop-color="white"/>
<stop offset="1" stop-color="white" stop-opacity="0"/>
</linearGradient>
<linearGradient id="paint7_linear_2733_41214" x1="300.309" y1="125.344" x2="300.309" y2="142.242" gradientUnits="userSpaceOnUse">
<stop stop-color="white"/>
<stop offset="1" stop-color="white" stop-opacity="0"/>
</linearGradient>
<clipPath id="clip0_2733_41214">
<rect width="471.833" height="266" fill="white" transform="translate(-43.0151 -0.245789)"/>
</clipPath>
</defs>
</svg>
