<svg width="45" height="45" viewBox="0 0 45 45" fill="none" xmlns="http://www.w3.org/2000/svg">
<path d="M22.1728 7C20.2949 7 18.4939 7.746 17.166 9.07387C15.8382 10.4018 15.0922 12.2027 15.0922 14.0807C15.0922 15.9586 15.8382 17.7595 17.166 19.0874C18.4939 20.4153 20.2949 21.1613 22.1728 21.1613C24.0507 21.1613 25.8517 20.4153 27.1796 19.0874C28.5075 17.7595 29.2535 15.9586 29.2535 14.0807C29.2535 12.2027 28.5075 10.4018 27.1796 9.07387C25.8517 7.746 24.0507 7 22.1728 7ZM22.1728 25.2074C16.134 25.2074 7 28.8387 7 34.3111V39.3687H37.3456V34.3111C37.3456 28.8387 28.2116 25.2074 22.1728 25.2074Z" fill="url(#paint0_linear_2732_38222)"/>
<defs>
<linearGradient id="paint0_linear_2732_38222" x1="3.12144" y1="39.3687" x2="43.5475" y2="37.6855" gradientUnits="userSpaceOnUse">
<stop stop-color="#8FD0FF"/>
<stop offset="0.585852" stop-color="#3787FF"/>
<stop offset="1" stop-color="#4149FF"/>
</linearGradient>
</defs>
</svg>
