<svg width="45" height="45" viewBox="0 0 45 45" fill="none" xmlns="http://www.w3.org/2000/svg">
<path fill-rule="evenodd" clip-rule="evenodd" d="M4 23.1965C4 13.0933 12.0933 5 22.1965 5C32.2998 5 40.393 13.0933 40.393 23.1965C40.393 33.2998 32.2998 41.393 22.1965 41.393C12.0933 41.393 4 33.2998 4 23.1965ZM22.1965 8.6393C14.1032 8.6393 7.6393 15.1032 7.6393 23.1965C7.6393 31.2898 14.1032 37.7537 22.1965 37.7537C30.2898 37.7537 36.7537 31.2898 36.7537 23.1965C36.7537 15.1032 30.2898 8.6393 22.1965 8.6393Z" fill="url(#paint0_linear_2732_38219)"/>
<path d="M22.1967 6.81934C13.0984 6.81934 5.81982 14.0979 5.81982 23.1962C5.81982 32.2945 13.0984 39.5731 22.1967 39.5731C31.295 39.5731 38.5736 32.2945 38.5736 23.1962C38.5736 14.0979 31.295 6.81934 22.1967 6.81934ZM20.377 19.5569C20.377 19.9194 20.5618 20.1042 20.7396 20.2819C20.9244 20.6515 21.1021 20.8292 21.4717 21.014C21.6494 21.1917 22.0119 21.3766 22.5592 21.5614C23.2913 21.9239 24.0163 22.2864 24.5637 22.6489C25.2887 23.0114 25.836 23.381 26.1985 23.9212C26.7458 24.4685 27.1083 25.0159 27.2931 25.5632C27.4708 26.1105 27.6557 26.8355 27.6557 27.7453C27.6557 28.6552 27.4708 29.3802 27.2931 29.9275C27.1083 30.6596 26.7458 31.0221 26.3833 31.5695C26.0208 31.932 25.4735 32.2945 24.9262 32.657C24.5637 32.8418 24.3789 33.0195 24.0163 33.0195V35.9338H20.377V32.8418C20.0145 32.657 19.652 32.657 19.2824 32.4793C18.5574 32.2945 18.1949 31.932 17.6476 31.3846C17.2851 31.0221 16.9225 30.29 16.5529 29.565C16.3752 28.6552 16.1904 27.7453 16.1904 26.6507H19.8297C19.8297 27.198 19.8297 27.7453 20.0145 28.2927C20.1922 28.84 20.377 29.2025 20.5618 29.3802C20.7396 29.565 20.9244 29.7498 21.2869 29.9275C21.6494 30.1123 21.8342 30.1123 22.1967 30.1123C22.5592 30.1123 22.744 30.1123 23.1065 29.9275C23.469 29.7498 23.6538 29.565 23.8315 29.3802C24.0163 29.2025 24.0163 29.0177 24.2012 28.6552C24.3789 28.4704 24.3789 28.1078 24.3789 27.7453C24.3789 27.3828 24.2012 27.0203 24.2012 26.8355C24.2012 26.6507 24.0163 26.2882 23.8315 26.1105C23.6538 25.7409 23.469 25.5632 23.1065 25.3784C22.744 25.2007 22.3815 25.0159 22.0119 24.8311C21.2869 24.4685 20.5619 24.106 20.0145 23.7435C19.2824 23.381 18.7422 23.0114 18.3726 22.4712C17.8324 22.1016 17.4628 21.5614 17.2851 20.8292C17.1002 20.2819 16.9225 19.5569 16.9225 18.6471C16.9225 17.9221 16.9225 17.1899 17.1002 16.6426C17.4628 16.1024 17.6476 15.5551 18.1949 15.0078C18.5574 14.4605 18.9199 14.0979 19.2824 13.9131C19.652 13.7354 19.8297 13.5506 20.1922 13.5506V10.4586H23.8315V13.3729C24.2012 13.5506 24.5637 13.7354 24.9262 13.9131C25.4735 14.2828 26.0208 14.6453 26.3833 15.1926C26.7458 15.7328 27.1083 16.2801 27.2931 17.0122C27.4708 17.7372 27.6557 18.4623 27.6557 19.3721H24.2012C24.2012 18.2846 24.0163 17.5524 23.6538 17.0122C23.2913 16.4649 22.9217 16.2801 22.1967 16.2801C21.8342 16.2801 21.4717 16.2801 21.2869 16.4649C21.1021 16.6426 20.9244 16.8274 20.7396 17.0122C20.5618 17.1899 20.5619 17.5524 20.377 17.7372C20.1922 17.9221 20.1922 18.2846 20.1922 18.6471C20.1922 19.0096 20.377 19.1944 20.377 19.5569Z" fill="url(#paint1_linear_2732_38219)"/>
<defs>
<linearGradient id="paint0_linear_2732_38219" x1="-0.651496" y1="41.3931" x2="47.8192" y2="39.2404" gradientUnits="userSpaceOnUse">
<stop stop-color="#8FD0FF"/>
<stop offset="0.585852" stop-color="#3787FF"/>
<stop offset="1" stop-color="#4149FF"/>
</linearGradient>
<linearGradient id="paint1_linear_2732_38219" x1="1.63348" y1="39.5731" x2="45.2571" y2="37.6357" gradientUnits="userSpaceOnUse">
<stop stop-color="#8FD0FF"/>
<stop offset="0.585852" stop-color="#3787FF"/>
<stop offset="1" stop-color="#4149FF"/>
</linearGradient>
</defs>
</svg>
