<svg width="45" height="45" viewBox="0 0 45 45" fill="none" xmlns="http://www.w3.org/2000/svg">
<path d="M24.9427 37.0075H19.5037C18.5052 37.0075 17.6908 36.1931 17.6908 35.1945V17.0648C17.6908 16.0663 18.5052 15.2519 19.5037 15.2519H24.9427C25.9412 15.2519 26.7556 16.0663 26.7556 17.0648V35.1945C26.7556 36.1931 25.9412 37.0075 24.9427 37.0075ZM37.6334 37.0075H32.1945C31.196 37.0075 30.3816 36.1931 30.3816 35.1945V9.81297C30.3816 8.81442 31.196 8 32.1945 8H37.6334C38.632 8 39.4464 8.81442 39.4464 9.81297V35.1945C39.4464 36.1931 38.632 37.0075 37.6334 37.0075ZM12.2519 37.0075H6.81297C5.81442 37.0075 5 36.1931 5 35.1945V24.3167C5 23.3182 5.81442 22.5037 6.81297 22.5037H12.2519C13.2504 22.5037 14.0648 23.3182 14.0648 24.3167V35.1945C14.0648 36.1931 13.2504 37.0075 12.2519 37.0075Z" fill="url(#paint0_linear_2732_38226)"/>
<defs>
<linearGradient id="paint0_linear_2732_38226" x1="0.597311" y1="37.0075" x2="46.4384" y2="34.5899" gradientUnits="userSpaceOnUse">
<stop stop-color="#8FD0FF"/>
<stop offset="0.585852" stop-color="#3787FF"/>
<stop offset="1" stop-color="#4149FF"/>
</linearGradient>
</defs>
</svg>
