<svg width="151" height="30" viewBox="0 0 151 30" fill="none" xmlns="http://www.w3.org/2000/svg">
<path fill-rule="evenodd" clip-rule="evenodd" d="M12.0972 23.9827H6.61459C2.96146 23.9827 0 21.0212 0 17.3681V17.2118C0 14.1341 2.29875 11.5932 5.273 11.2125C5.40678 7.99036 8.06129 5.41919 11.3163 5.41919C12.9823 5.41919 14.4909 6.0927 15.5848 7.18228C17.0514 6.07548 18.8771 5.41919 20.856 5.41919C25.6934 5.41919 29.6148 9.36758 29.6148 14.2049C29.6148 19.5885 25.2506 23.9827 19.8671 23.9827H12.0972V23.9827Z" fill="#144EE3"/>
<path d="M45.9886 22.8075H41.0889V6.92999H46.2057C47.7459 6.92999 49.0639 7.24785 50.1596 7.88357C51.2553 8.51412 52.0952 9.42119 52.6792 10.6048C53.2632 11.7832 53.5552 13.1942 53.5552 14.8377C53.5552 16.4916 53.2606 17.9155 52.6714 19.1095C52.0822 20.2982 51.2243 21.213 50.0976 21.8539C48.9708 22.4896 47.6012 22.8075 45.9886 22.8075ZM43.0116 21.1019H45.8646C47.1774 21.1019 48.2653 20.8486 49.1285 20.3421C49.9916 19.8356 50.6351 19.1146 51.0589 18.1791C51.4827 17.2436 51.6946 16.1298 51.6946 14.8377C51.6946 13.556 51.4853 12.4525 51.0666 11.5273C50.648 10.597 50.0226 9.88376 49.1905 9.38759C48.3584 8.88625 47.3221 8.63558 46.0817 8.63558H43.0116V21.1019ZM60.0365 23.0866C59.2819 23.0866 58.5971 22.9445 57.982 22.6602C57.367 22.3708 56.8786 21.9547 56.5168 21.412C56.155 20.8642 55.9741 20.2026 55.9741 19.4273C55.9741 18.7451 56.1085 18.1921 56.3772 17.7682C56.646 17.3393 57.0052 17.0033 57.4549 16.7604C57.9045 16.5175 58.4007 16.3366 58.9434 16.2177C59.4912 16.0937 60.0417 15.9955 60.5947 15.9231C61.3183 15.8301 61.9049 15.7603 62.3546 15.7138C62.8094 15.6621 63.1402 15.5768 63.3469 15.4579C63.5588 15.3391 63.6648 15.1323 63.6648 14.8377V14.7757C63.6648 14.0108 63.4554 13.4164 63.0368 12.9926C62.6233 12.5688 61.9953 12.3569 61.1529 12.3569C60.2794 12.3569 59.5946 12.5481 59.0984 12.9306C58.6022 13.313 58.2534 13.7213 58.0518 14.1555L56.3152 13.5353C56.6253 12.8117 57.0388 12.2483 57.5556 11.8452C58.0777 11.4369 58.6462 11.1526 59.2612 10.9924C59.8814 10.827 60.4913 10.7443 61.0909 10.7443C61.4733 10.7443 61.9126 10.7908 62.4088 10.8839C62.9102 10.9717 63.3934 11.1552 63.8586 11.4343C64.3289 11.7134 64.7191 12.1346 65.0292 12.698C65.3393 13.2614 65.4944 14.0159 65.4944 14.9618V22.8075H63.6648V21.1949H63.5717C63.4477 21.4534 63.2409 21.7299 62.9515 22.0245C62.6621 22.3191 62.277 22.5697 61.7964 22.7765C61.3157 22.9832 60.7291 23.0866 60.0365 23.0866ZM60.3156 21.443C61.0392 21.443 61.6491 21.3009 62.1452 21.0166C62.6466 20.7324 63.0239 20.3654 63.2771 19.9157C63.5355 19.4661 63.6648 18.9932 63.6648 18.497V16.8224C63.5872 16.9155 63.4167 17.0007 63.1531 17.0783C62.8947 17.1506 62.5949 17.2152 62.2538 17.2721C61.9178 17.3238 61.5896 17.3703 61.2692 17.4116C60.9539 17.4478 60.6981 17.4788 60.5017 17.5047C60.0262 17.5667 59.5817 17.6675 59.1682 17.807C58.7599 17.9414 58.4291 18.1455 58.1759 18.4195C57.9278 18.6882 57.8037 19.0552 57.8037 19.5204C57.8037 20.1561 58.0389 20.6367 58.5092 20.9624C58.9847 21.2828 59.5868 21.443 60.3156 21.443ZM74.0127 10.8994V12.4499H67.8415V10.8994H74.0127ZM69.6401 8.04638H71.4698V19.3963C71.4698 19.9132 71.5447 20.3008 71.6946 20.5592C71.8497 20.8125 72.0461 20.983 72.2838 21.0709C72.5267 21.1536 72.7826 21.1949 73.0513 21.1949C73.2529 21.1949 73.4183 21.1846 73.5475 21.1639C73.6767 21.1381 73.7801 21.1174 73.8576 21.1019L74.2297 22.7455C74.1057 22.792 73.9325 22.8385 73.7103 22.885C73.4881 22.9367 73.2064 22.9625 72.8653 22.9625C72.3484 22.9625 71.8419 22.8514 71.3457 22.6292C70.8547 22.4069 70.4464 22.0684 70.1208 21.6136C69.8004 21.1588 69.6401 20.5851 69.6401 19.8925V8.04638ZM80.2691 23.0866C79.5145 23.0866 78.8297 22.9445 78.2146 22.6602C77.5996 22.3708 77.1111 21.9547 76.7494 21.412C76.3876 20.8642 76.2067 20.2026 76.2067 19.4273C76.2067 18.7451 76.341 18.1921 76.6098 17.7682C76.8786 17.3393 77.2378 17.0033 77.6874 16.7604C78.1371 16.5175 78.6333 16.3366 79.1759 16.2177C79.7238 16.0937 80.2742 15.9955 80.8273 15.9231C81.5509 15.8301 82.1375 15.7603 82.5871 15.7138C83.042 15.6621 83.3727 15.5768 83.5795 15.4579C83.7914 15.3391 83.8973 15.1323 83.8973 14.8377V14.7757C83.8973 14.0108 83.688 13.4164 83.2694 12.9926C82.8559 12.5688 82.2279 12.3569 81.3855 12.3569C80.512 12.3569 79.8272 12.5481 79.331 12.9306C78.8348 13.313 78.486 13.7213 78.2844 14.1555L76.5478 13.5353C76.8579 12.8117 77.2714 12.2483 77.7882 11.8452C78.3102 11.4369 78.8788 11.1526 79.4938 10.9924C80.114 10.827 80.7239 10.7443 81.3234 10.7443C81.7059 10.7443 82.1452 10.7908 82.6414 10.8839C83.1427 10.9717 83.626 11.1552 84.0911 11.4343C84.5615 11.7134 84.9517 12.1346 85.2618 12.698C85.5719 13.2614 85.727 14.0159 85.727 14.9618V22.8075H83.8973V21.1949H83.8043C83.6803 21.4534 83.4735 21.7299 83.1841 22.0245C82.8947 22.3191 82.5096 22.5697 82.0289 22.7765C81.5483 22.9832 80.9616 23.0866 80.2691 23.0866ZM80.5482 21.443C81.2718 21.443 81.8816 21.3009 82.3778 21.0166C82.8791 20.7324 83.2564 20.3654 83.5097 19.9157C83.7681 19.4661 83.8973 18.9932 83.8973 18.497V16.8224C83.8198 16.9155 83.6492 17.0007 83.3857 17.0783C83.1272 17.1506 82.8275 17.2152 82.4863 17.2721C82.1504 17.3238 81.8222 17.3703 81.5018 17.4116C81.1865 17.4478 80.9306 17.4788 80.7342 17.5047C80.2587 17.5667 79.8143 17.6675 79.4008 17.807C78.9925 17.9414 78.6617 18.1455 78.4084 18.4195C78.1603 18.6882 78.0363 19.0552 78.0363 19.5204C78.0363 20.1561 78.2715 20.6367 78.7418 20.9624C79.2173 21.2828 79.8194 21.443 80.5482 21.443ZM89.0664 27.273V10.8994H90.834V12.791H91.0511C91.1855 12.5843 91.3716 12.3207 91.6093 12.0002C91.8522 11.6746 92.1985 11.3852 92.6482 11.1319C93.103 10.8735 93.718 10.7443 94.4933 10.7443C95.496 10.7443 96.3798 10.995 97.1447 11.4963C97.9097 11.9977 98.5066 12.7083 98.9356 13.6283C99.3646 14.5483 99.5791 15.6337 99.5791 16.8844C99.5791 18.1455 99.3646 19.2387 98.9356 20.1638C98.5066 21.0838 97.9123 21.7971 97.1525 22.3036C96.3927 22.8049 95.5167 23.0556 94.5243 23.0556C93.7594 23.0556 93.1469 22.929 92.6869 22.6757C92.2269 22.4173 91.8729 22.1253 91.6248 21.7996C91.3767 21.4689 91.1855 21.1949 91.0511 20.9779H90.8961V27.273H89.0664ZM90.8651 16.8534C90.8651 17.7527 90.9969 18.5461 91.2604 19.2335C91.524 19.9157 91.9091 20.4507 92.4156 20.8383C92.9221 21.2208 93.5423 21.412 94.2762 21.412C95.0412 21.412 95.6795 21.2104 96.1912 20.8073C96.708 20.399 97.0956 19.8511 97.3541 19.1637C97.6176 18.4712 97.7494 17.7011 97.7494 16.8534C97.7494 16.0161 97.6202 15.2615 97.3618 14.5896C97.1086 13.9126 96.7235 13.3776 96.2067 12.9848C95.695 12.5869 95.0515 12.3879 94.2762 12.3879C93.532 12.3879 92.9066 12.5765 92.4001 12.9538C91.8936 13.326 91.5111 13.848 91.2527 14.5199C90.9943 15.1866 90.8651 15.9645 90.8651 16.8534ZM104.2 6.92999V22.8075H102.37V6.92999H104.2ZM115.055 17.9388V10.8994H116.885V22.8075H115.055V20.7918H114.931C114.652 21.3965 114.218 21.9108 113.629 22.3346C113.04 22.7532 112.295 22.9625 111.396 22.9625C110.652 22.9625 109.99 22.7997 109.411 22.4741C108.833 22.1433 108.378 21.6472 108.047 20.9856C107.716 20.3189 107.551 19.479 107.551 18.466V10.8994H109.38V18.3419C109.38 19.2102 109.623 19.9028 110.109 20.4197C110.6 20.9365 111.226 21.1949 111.985 21.1949C112.44 21.1949 112.903 21.0786 113.373 20.8461C113.849 20.6135 114.247 20.2569 114.567 19.7762C114.893 19.2955 115.055 18.6831 115.055 17.9388ZM128.671 13.5663L127.027 14.0315C126.924 13.7575 126.772 13.4913 126.57 13.2329C126.374 12.9693 126.105 12.7523 125.764 12.5817C125.423 12.4111 124.986 12.3259 124.454 12.3259C123.725 12.3259 123.118 12.4938 122.632 12.8298C122.151 13.1606 121.911 13.5818 121.911 14.0935C121.911 14.5483 122.076 14.9075 122.407 15.1711C122.738 15.4347 123.254 15.6543 123.957 15.8301L125.725 16.2642C126.79 16.5226 127.583 16.918 128.105 17.4504C128.627 17.9776 128.888 18.6572 128.888 19.4893C128.888 20.1716 128.692 20.7815 128.299 21.319C127.911 21.8565 127.369 22.2803 126.671 22.5904C125.973 22.9005 125.162 23.0556 124.237 23.0556C123.022 23.0556 122.017 22.792 121.221 22.2648C120.425 21.7376 119.921 20.9675 119.709 19.9545L121.446 19.5204C121.611 20.1612 121.924 20.6419 122.384 20.9624C122.849 21.2828 123.456 21.443 124.205 21.443C125.058 21.443 125.735 21.2621 126.237 20.9003C126.743 20.5334 126.996 20.0941 126.996 19.5824C126.996 19.1689 126.852 18.8226 126.562 18.5435C126.273 18.2593 125.828 18.0473 125.229 17.9078L123.244 17.4426C122.154 17.1842 121.353 16.7837 120.841 16.241C120.334 15.6931 120.081 15.0083 120.081 14.1865C120.081 13.5146 120.27 12.9202 120.647 12.4034C121.029 11.8865 121.549 11.4808 122.205 11.1862C122.867 10.8916 123.616 10.7443 124.454 10.7443C125.632 10.7443 126.557 11.0027 127.229 11.5196C127.906 12.0364 128.387 12.7187 128.671 13.5663ZM138.961 6.92999L143.054 13.5353H143.178L147.272 6.92999H149.535L144.543 14.8687L149.535 22.8075H147.272L143.178 16.3262H143.054L138.961 22.8075H136.697L141.814 14.8687L136.697 6.92999H138.961Z" fill="white"/>
</svg>
