<svg width="274" height="275" viewBox="0 0 274 275" fill="none" xmlns="http://www.w3.org/2000/svg">
<path d="M273.819 247.365V111.702C272.668 110.555 261.451 101.09 245.919 88.1837C230.675 75.5639 211.405 59.5023 193.86 44.8748C185.519 37.9913 177.465 31.1078 170.275 25.3715C166.823 22.5033 163.372 19.3484 159.92 16.4802L140.965 1.50788C138.375 -0.538154 134.707 -0.496561 132.164 1.60769L114.189 16.4802C96.9314 31.1078 98.0818 29.9605 86.8646 39.4254C67.3064 55.7738 44.8719 74.1298 27.9022 88.4705C11.5078 101.951 0.00292969 111.702 0.00292969 111.702V249.086L272.384 248.801C273.177 248.8 273.819 248.158 273.819 247.365Z" fill="#144EE3"/>
<path fill-rule="evenodd" clip-rule="evenodd" d="M0.00292969 111.702C0.00292969 111.702 11.5078 101.951 27.9022 88.4705C37.6877 80.2011 49.2903 70.5964 61.1106 60.8115C69.7889 53.6276 78.5845 46.3466 86.8646 39.4254C91.4874 35.5248 94.0096 33.4265 96.5854 31.2837C100.26 28.227 104.043 25.0796 114.189 16.4802L132.164 1.60769C134.707 -0.496561 138.375 -0.538154 140.965 1.50788L159.92 16.4802C161.646 17.9143 163.372 19.4201 165.098 20.9259C166.823 22.4316 168.549 23.9374 170.275 25.3715C174.873 29.0393 179.823 33.1762 184.976 37.4822C187.882 39.9105 190.852 42.3927 193.86 44.8748C211.405 59.5023 230.675 75.5639 245.919 88.1837C261.451 101.09 272.668 110.555 273.819 111.702V247.365C273.819 248.158 273.177 248.8 272.384 248.801L0.00292969 249.086V111.702ZM1.00293 248.085L272.383 247.801C272.624 247.801 272.819 247.606 272.819 247.365V112.135C271.831 111.237 268.952 108.772 264.617 105.117C259.73 100.997 253.045 95.4056 245.281 88.9536C230.036 76.3328 210.765 60.2708 193.221 45.644C190.202 43.1531 187.228 40.6674 184.321 38.2381C179.175 33.938 174.241 29.8148 169.651 26.1532L169.643 26.147L169.636 26.1406C167.901 24.6991 166.168 23.187 164.446 21.6842L164.44 21.6794C162.716 20.175 161.003 18.6801 159.291 17.2574L140.345 2.29261C138.125 0.538865 134.981 0.574515 132.801 2.37816L114.835 17.2431C114.834 17.2443 114.832 17.2456 114.831 17.2468C104.694 25.8388 100.899 28.9963 97.2166 32.0595C94.6381 34.2046 92.1153 36.3034 87.5095 40.1896L87.506 40.1926C79.2167 47.1214 70.4185 54.4046 61.7401 61.5886C49.925 71.3691 38.3319 80.9659 28.5477 89.2343L28.5374 89.243C20.3428 95.981 13.3703 101.787 8.44653 105.908C5.98469 107.969 4.03511 109.609 2.70115 110.733C2.03417 111.295 1.52109 111.728 1.17485 112.021L1.00293 112.166V248.085Z" fill="white"/>
<path d="M192.652 160.605L192.652 160.605L179.711 168.348L179.709 168.349L152.099 184.696L152.097 184.697L139.161 192.437L139.154 192.441L133.953 195.444L129.034 192.447L129.029 192.443L116.666 184.703L116.666 184.702L90.4928 168.354L90.4924 168.354L78.1253 160.61L78.1251 160.61L38.0928 135.518V39.1151C38.0928 36.0792 40.5691 33.6151 43.6084 33.6151C48.7635 33.6151 49.1279 33.6151 49.5286 33.6151C49.882 33.615 50.2637 33.615 53.9872 33.615H220.232L225.259 33.615C227.366 33.6151 228.345 33.6151 230.624 33.6149C233.662 33.6148 236.127 36.0775 236.127 39.115V134.65L192.652 160.605Z" fill="#144EE3" stroke="white"/>
<rect x="70" y="64" width="133.553" height="1.48392" fill="white"/>
<rect x="70" y="91.4839" width="133.553" height="1.48392" fill="white"/>
<rect x="70" y="118.968" width="133.553" height="1.48392" fill="white"/>
<path d="M273.317 112.578V248.799V268.899C273.317 271.937 270.855 274.399 267.817 274.399H6.00052C2.96278 274.399 0.499938 271.936 0.501413 268.898C0.501687 268.334 0.50197 267.873 0.502236 267.44C0.502951 266.276 0.503548 265.304 0.503548 263.018V248.8C0.503548 248.786 0.502934 248.771 0.501728 248.757V112.604L122.263 188.705L122.265 188.706L129.762 193.353C131.851 194.648 134.491 194.654 136.586 193.369L137.161 193.016L137.171 193.01L140.612 191.008L140.615 191.006L273.317 112.578Z" fill="#144EE3" stroke="white"/>
</svg>
